# xmcd
#
# Track frame offsets: 
#        150
#        18107
#        36462
#        55311
#        74447
#        97126
#        121469
#        142267
#        161572
#        183156
#        197688
#        219476
#        237780
#
# Disc length: 3455 seconds
#
# Revision: 3
# Processed by: cddbd v1.5.2PL0 Copyright (c) Steve Scherf et al.
# Submitted via: ExactAudioCopy v1.0b3
#
DISCID=c00d7d0d
DTITLE=曼里 - 誰可改變 Vol 2
DYEAR=1900
DGENRE=Easy Listening
TTITLE0=誰可改變
TTITLE1=聽不到的說話
TTITLE2=偏偏喜歡你
TTITLE3=為你鍾情
TTITLE4=無賴
TTITLE5=雨中的戀人們
TTITLE6=留戀
TTITLE7=嬰粟花
TTITLE8=痴換情深
TTITLE9=胭脂扣
TTITLE10=舊情綿綿
TTITLE11=寂寞的風
TTITLE12=我這樣愛你
EXTD=
EXTT0=
EXTT1=
EXTT2=
EXTT3=
EXTT4=
EXTT5=
EXTT6=
EXTT7=
EXTT8=
EXTT9=
EXTT10=
EXTT11=
EXTT12=
PLAYORDER=
